<!-- Generated by IcoMoon.io -->
<svg version="1.1" xmlns="http://www.w3.org/2000/svg" width="1024" height="1024" viewBox="0 0 1024 1024">
<title>icon-sexs</title>
<g id="icomoon-ignore">
</g>
<path d="M512 0c77.16 0 150.38 17.080 216 47.66-29.54 20.98-49.6 42.26-66.020 71.8-46.56-17.82-97.14-27.58-149.98-27.58-116.020 0-221.060 47.040-297.080 123.040-76 76.020-123.040 181.060-123.040 297.080 0 116 47.040 221.060 123.040 297.080 76.020 76 181.060 123.040 297.080 123.040 116 0 221.060-47.040 297.080-123.040 76-76.020 123.040-181.080 123.040-297.080 0-30.52-3.26-60.26-9.44-88.92 28.7-16.74 51.34-45.62 75.72-71.38 16.62 50.44 25.6 104.32 25.6 160.3 0 141.36-57.32 269.4-149.96 362.040s-220.68 149.96-362.040 149.96c-141.38 0-269.4-57.32-362.040-149.96s-149.96-220.68-149.96-362.040c0-141.38 57.32-269.4 149.96-362.040s220.66-149.96 362.040-149.96z"></path>
<path d="M808.84 344.78v-88.42h-81.26v-71.74h81.26v-88.4h75.58v88.4h81.84v71.74h-81.84v88.42h-75.58zM318.2 690.64v-265.92c-5.064 1.321-14.271 3.228-23.552 4.921l-3.688 0.559c-8.94 1.62-17.86 3.12-26.8 4.56l-7.16-52.6c7.66-1.78 16.58-4.54 26.7-8.38 10.12-3.82 20.4-8.12 30.86-12.9 10.42-4.78 20.060-9.74 29.020-14.76 8.92-5.020 15.92-9.56 21.040-13.7l43.040 5.72-0.48 352.5h-88.98zM632.46 694.46c-21.84 0-41.38-2.32-58.68-6.86-17.28-4.54-31.96-11-44-19.44-12.040-8.46-21.2-18.66-27.5-30.54s-9.5-25.1-9.5-39.76c0-12.92 3.28-25.68 9.82-38.2 6.52-12.52 17.3-24.060 32.2-34.66s34.84-19.46 59.88-26.62l29.64 35.38c-9.72 4.46-18.34 9.4-25.9 14.92-7.58 5.48-13.56 11.96-17.86 19.28-4.32 7.32-6.46 16.020-6.46 26.080 0 7.8 1.9 15.52 5.74 23.18 3.82 7.66 9.98 13.96 18.42 18.98s19.52 7.58 33.24 7.58c8.76 0 16.82-2.080 24.14-6.16 7.34-4.060 13.24-9.4 17.62-16.020 4.4-6.6 6.54-13.7 6.54-21.36 0-8.92-3.2-16.66-9.56-23.18-6.4-6.56-14.76-12.6-25.2-18.12-10.44-5.48-21.9-10.98-34.42-16.58-12.52-5.56-25.040-11.72-37.56-18.4-12.5-6.7-23.98-14.6-34.44-23.68-10.44-9.080-18.88-19.94-25.26-32.44-6.38-12.52-9.56-27.34-9.56-44.56s4.78-32.92 14.34-47.12c9.58-14.18 23.6-25.5 42.1-33.96 18.48-8.44 41.12-12.66 67.9-12.66s49.36 3.66 67.6 11c18.26 7.34 32.060 17.38 41.38 30.12 9.32 12.76 13.94 27.28 13.94 43.54 0 13.86-3.1 27.26-9.4 40.24-6.3 13-16.34 24.56-30.14 34.6-13.78 10.060-32.040 17.62-54.68 22.72l-29.16-33.48c17.2-5.26 29.4-13.22 36.58-23.84 7.16-10.58 10.76-22.86 10.76-36.9 0-10.36-3.92-19.2-11.72-26.46-7.82-7.26-19.040-10.86-33.72-10.86-14.020 0-25.12 3.68-33.24 11.1-8.14 7.42-12.2 15.7-12.2 24.78 0 9.88 3.28 18.66 9.82 26.3 6.52 7.66 15.2 14.68 26.060 21.12 10.84 6.48 22.7 12.76 35.62 18.84 12.92 6.040 25.92 12.42 38.92 19.2 12.98 6.78 24.94 14.34 35.84 22.72 10.94 8.36 19.7 18 26.32 28.94 6.62 10.92 9.96 23.58 10.12 37.94 0.16 21.84-5.56 40.42-17.22 55.8-11.64 15.38-27.58 27.18-47.9 35.32-20.32 8.12-43.44 12.18-69.26 12.18z"></path>
</svg>
