<!-- Generated by IcoMoon.io -->
<svg version="1.1" xmlns="http://www.w3.org/2000/svg" width="1024" height="1024" viewBox="0 0 1024 1024">
<title>icon-sexs</title>
<g id="icomoon-ignore">
</g>
<path d="M1016.623 362.577c-20.427-81.016-81.197-136.226-166.703-151.455-111.271-19.861-231.48 12.578-326.915 45.624-34.32-55.009-58.75-109.148-70.681-137.743-7.524-17.999-17.473-33.855-29.566-47.14-73.776-80.895-144.963-66.717-180.861-51.085-32.985 14.379-60.611 40.71-77.76 74.16-26.311 51.306-21.315 104.698-12.498 140.432 5.076 20.588 14.945 40.285 30.175 60.206 25.886 33.936 45.787 71.389 59.255 111.492-68.012 51.792-125.386 109.875-166.501 168.564-64.636 92.343-88.381 186.261-66.802 264.445 16.462 59.64 57.557 105.689 118.873 133.172 66.777 29.951 133.293 42.046 197.2 42.046 197.99 0 370.921-116.184 448.843-177.968 223.454-177.2 272.537-361.417 243.941-474.751zM675.754 715.642c-163.387 124.659-325.843 171.113-434.566 124.234-44.25-19.071-72.785-48.597-82.472-85.363-12.558-47.525 6.108-106.074 53.957-169.332 14.299-18.89 30.922-37.697 49.286-56.222 2.468 96.811-26.109 170.446-26.492 171.435-4.146 10.354 0.911 22.125 11.265 26.271 2.468 0.991 5.016 1.456 7.524 1.456 8.010 0 15.592-4.792 18.747-12.681 2.407-5.987 58-147.835 11.061-306.428v-0.121c-0.040-0.121-0.101-0.242-0.141-0.365-0.121-0.425-0.181-0.83-0.324-1.253-0.060-0.201-0.222-0.344-0.284-0.546-14.824-49.042-38.081-94.708-69.346-135.68-11.791-15.451-19.335-30.275-23.056-45.362-7.18-29.041-11.406-72.098 9.202-112.302 12.903-25.138 33.49-44.876 57.94-55.535 13.672-5.967 27.262-8.938 40.771-8.938 32.054 0 63.542 16.787 94.039 50.215 8.958 9.829 16.402 21.76 22.125 35.453 12.701 30.396 39.052 88.479 76.082 147.126 0.101 0.181 0.101 0.385 0.201 0.566 1.172 1.821 2.347 3.519 3.499 5.318 0.991 1.537 1.882 3.054 2.893 4.591l0.81 1.072c71.854 109.45 149.473 166.32 226.829 166.32 11.245 0 22.489-1.193 33.692-3.6 10.92-2.347 17.878-13.104 15.532-24.027-2.347-10.92-13.064-17.818-24.027-15.511-63.016 13.509-120.795-25.946-167.613-78.467 72.138-20.183 138.835-24.027 194.349-10.961 59.296 14.015 93.737 41.56 102.331 81.926 16.847 78.991-63.159 199.384-203.813 306.71z"></path>
</svg>
