<!-- Generated by IcoMoon.io -->
<svg version="1.1" xmlns="http://www.w3.org/2000/svg" width="1024" height="1024" viewBox="0 0 1024 1024">
<title>icon-sexs</title>
<g id="icomoon-ignore">
</g>
<path d="M783.974 685.056c-125.030-45.056-164.966-83.149-164.966-164.557 0-9.011 1.331-15.77 3.482-21.402 9.83-25.19 37.786-27.955 51.405-100.966 6.963-37.171 40.653-0.614 47.104-85.402 0-33.792-18.432-42.189-18.432-42.189s9.318-49.971 13.005-88.474c4.608-47.923-27.853-171.827-201.421-171.827-0.717 0-1.434 0-2.15 0.102-0.717 0-1.434-0.102-2.15-0.102-173.466 0-206.029 123.904-201.523 171.827 3.686 38.502 13.005 88.474 13.005 88.474s-18.432 8.397-18.432 42.189c6.451 84.787 40.141 48.23 47.104 85.402 13.722 73.114 41.574 75.878 51.405 100.966 2.15 5.632 3.482 12.39 3.482 21.402 0 81.408-39.936 119.501-164.966 164.557-125.338 45.158-181.658 91.238-181.658 122.675s0 206.029 0 206.029h907.469c0 0 0-174.592 0-206.029s-56.32-77.517-181.76-122.675z"></path>
</svg>
