<!-- Generated by IcoMoon.io -->
<svg version="1.1" xmlns="http://www.w3.org/2000/svg" width="1024" height="1024" viewBox="0 0 1024 1024">
<title>icon-sexs</title>
<g id="icomoon-ignore">
</g>
<path d="M786.842 682.701c-125.85-45.363-166.093-22.528-166.093-104.55 0-3.891 0.205-11.264 0.717-18.842h6.144c86.016 6.246 168.96 12.288 187.392-0.614 29.491-20.582-72.499-52.326-72.499-318.566-0.102-134.451-88.781-229.888-223.232-229.888-1.126 0-2.253 0.102-3.379 0.102-0.307 0-0.614 0-0.922 0v0c-0.512 0-1.024 0-1.536 0-0.205 0-0.307 0-0.512 0-0.102 0-0.307 0-0.512 0-0.102 0-0.307 0-0.41 0s-0.307 0-0.41 0c-0.205 0-0.307 0-0.512 0s-0.307 0-0.512 0c-0.512 0-1.024 0-1.536 0v0c-0.307 0-0.614 0-0.922 0-1.126 0-2.253-0.102-3.379-0.102-134.554 0-223.232 95.437-223.232 229.99 0 266.24-101.99 297.984-72.499 318.566 18.432 12.902 101.376 6.861 187.392 0.614h6.144c0.41 7.475 0.717 14.848 0.717 18.842 0 82.022-40.243 59.085-166.093 104.55-126.259 45.466-162.611 91.853-162.611 123.494s0 207.462 0 207.462h874.906c0 0 0-175.821 0-207.462s-36.352-78.029-162.611-123.597z"></path>
</svg>
