<!-- Generated by IcoMoon.io -->
<svg version="1.1" xmlns="http://www.w3.org/2000/svg" width="1024" height="1024" viewBox="0 0 1024 1024">
<title>icon-sexs</title>
<g id="icomoon-ignore">
</g>
<path d="M512 10.24c-173.158 0-313.651 140.39-313.651 313.651 0.102 219.443 313.651 689.869 313.651 689.869s313.651-470.426 313.651-689.971c0-173.158-140.493-313.549-313.651-313.549zM541.184 572.826c-9.626 0.819-18.944 1.843-29.184 1.843s-19.558-1.024-29.184-1.843c-124.826-14.438-221.696-120.32-221.696-248.934 0-138.547 112.333-250.88 250.88-250.88 138.445 0 250.88 112.333 250.88 250.88 0 128.614-97.075 234.496-221.696 248.934z"></path>
<path d="M637.44 323.891c0 69.279-56.161 125.44-125.44 125.44s-125.44-56.161-125.44-125.44c0-69.279 56.161-125.44 125.44-125.44s125.44 56.161 125.44 125.44z"></path>
</svg>
