<!-- Generated by IcoMoon.io -->
<svg version="1.1" xmlns="http://www.w3.org/2000/svg" width="1024" height="1024" viewBox="0 0 1024 1024">
<title>icon-sexs</title>
<g id="icomoon-ignore">
</g>
<path d="M814.080 258.458c2.97-2.662 4.608-6.144 5.734-9.83 25.498-31.642 41.37-71.168 41.37-114.893 0-11.469-9.318-20.787-20.787-20.787s-20.787 9.318-20.787 20.787c0 78.643-64 142.541-142.541 142.541-78.643 0-142.541-63.898-142.541-142.541 0-11.469-9.216-20.787-20.787-20.787-0.614 0-1.126 0.307-1.741 0.41-0.614-0.102-1.126-0.41-1.741-0.41-11.469 0-20.787 9.318-20.787 20.787 0 78.643-64 142.541-142.643 142.541-78.541 0-142.541-63.898-142.541-142.541 0-11.469-9.318-20.787-20.787-20.787s-20.787 9.318-20.787 20.787c0 43.827 15.974 83.456 41.574 115.098 1.024 3.584 2.662 6.861 5.53 9.523 3.379 3.174 82.432 80.077-17.203 274.842-88.166 172.237-67.891 259.482-29.696 364.134 3.072 8.397 11.059 13.722 19.456 13.722 2.355 0 4.813-0.41 7.168-1.229 10.752-3.891 16.282-15.872 12.39-26.624-19.251-52.634-32.461-99.328-28.57-155.546 44.339 20.275 165.683 67.584 331.981 67.584 62.464 0 131.379-6.963 204.902-24.166 0.41 0 0.717 0.205 1.024 0.205 2.867 0 5.734-1.126 8.499-2.355 42.189-10.445 85.914-24.576 130.662-42.803 4.301 56.832-9.011 103.834-28.365 156.979-3.891 10.752 1.638 22.733 12.39 26.624 2.355 0.922 4.71 1.229 7.168 1.229 8.499 0 16.384-5.222 19.456-13.619 38.195-104.653 58.368-192-29.798-364.134-99.43-194.15-21.094-271.155-17.203-274.739zM761.856 713.318c4.403-14.234 5.325-25.6 5.427-26.624 0.717-11.366-7.987-21.094-19.456-21.811-11.264-0.819-21.197 7.987-22.016 19.354 0 0.307-2.458 29.696-20.787 44.954-154.214 36.557-287.949 24.269-382.566 2.867-21.402-13.926-24.269-46.797-24.269-47.718-0.717-11.366-10.138-19.866-21.914-19.456-11.469 0.717-20.173 10.445-19.558 21.811 0.102 1.126 1.126 13.926 6.349 29.594-43.622-13.414-72.704-26.522-83.251-31.642 8.090-37.888 23.347-80.486 49.869-132.403 58.778-114.79 60.826-195.584 48.23-248.013 21.299 8.704 44.544 13.722 69.018 13.722 72.806 0 135.168-42.701 165.069-104.038 29.901 61.338 92.365 104.038 164.966 104.038 24.474 0 47.718-5.018 69.12-13.722-12.595 52.429-10.547 133.325 48.23 248.013 26.419 51.712 41.574 94.003 49.766 131.686-27.955 11.571-55.296 21.094-82.227 29.389z"></path>
<path d="M512 594.534c16.179 0 29.286 13.107 29.286 29.286s-13.107 29.286-29.286 29.286c-16.179 0-29.286-13.107-29.286-29.286s13.107-29.286 29.286-29.286z"></path>
<path d="M944.026 323.277v-50.79l-103.219 103.117 103.219 103.219v-50.893h69.734v-104.653z"></path>
<path d="M183.194 375.706l-103.219-103.117v50.79h-69.734v104.653h69.734v50.79z"></path>
</svg>
