<svg xmlns="http://www.w3.org/2000/svg" aria-hidden="true"
 style="position:absolute;width:0;height:0;overflow:hidden">
  <defs>
    <symbol id="icon-facebook-1" viewBox="0 0 32 32">
      <path d="M21.329 5.313h2.921V.225C23.746.156 22.013 0 19.994 0c-4.212 0-7.097 2.649-7.097 7.519V12H8.249v5.688h4.648V32h5.699V17.689h4.46l.708-5.688h-5.169V8.082c.001-1.644.444-2.769 2.735-2.769z"/>
    </symbol>
    <symbol id="icon-instagram-2" viewBox="0 0 32 32">
      <path d="M31.969 9.408c-.075-1.7-.35-2.869-.744-3.882a7.806 7.806 0 0 0-1.851-2.838A7.867 7.867 0 0 0 26.542.844C25.523.45 24.36.175 22.66.1 20.947.019 20.403 0 16.059 0s-4.888.019-6.595.094c-1.7.075-2.869.35-3.882.744a7.803 7.803 0 0 0-2.838 1.85A7.867 7.867 0 0 0 .9 5.52C.506 6.539.231 7.702.156 9.402c-.081 1.713-.1 2.257-.1 6.601s.019 4.888.094 6.595c.075 1.7.35 2.869.744 3.882a7.895 7.895 0 0 0 1.85 2.838 7.867 7.867 0 0 0 2.832 1.844c1.019.394 2.182.669 3.882.744 1.706.075 2.25.094 6.595.094s4.888-.019 6.595-.094c1.7-.075 2.869-.35 3.882-.744a8.184 8.184 0 0 0 4.682-4.682c.394-1.019.669-2.182.744-3.882.075-1.707.094-2.251.094-6.595s-.006-4.888-.081-6.595zm-2.882 13.065c-.069 1.563-.331 2.407-.55 2.969a5.31 5.31 0 0 1-3.038 3.038c-.563.219-1.413.481-2.969.55-1.688.075-2.194.094-6.464.094s-4.782-.019-6.464-.094c-1.563-.069-2.407-.331-2.969-.55a4.926 4.926 0 0 1-1.838-1.194 4.974 4.974 0 0 1-1.194-1.838c-.219-.563-.481-1.413-.55-2.969-.075-1.688-.094-2.194-.094-6.464s.019-4.782.094-6.464c.069-1.563.331-2.407.55-2.969a4.868 4.868 0 0 1 1.2-1.838A4.974 4.974 0 0 1 6.639 3.55c.563-.219 1.413-.481 2.969-.55 1.688-.075 2.194-.094 6.464-.094 4.276 0 4.782.019 6.464.094 1.563.069 2.407.331 2.969.55a4.914 4.914 0 0 1 1.838 1.194 4.974 4.974 0 0 1 1.194 1.838c.219.563.481 1.413.55 2.969.075 1.688.094 2.194.094 6.464s-.019 4.77-.094 6.458z"/>
      <path d="M16.059 7.783c-4.538 0-8.22 3.682-8.22 8.22s3.682 8.22 8.22 8.22c4.539 0 8.22-3.682 8.22-8.22s-3.682-8.22-8.22-8.22zm0 13.552a5.333 5.333 0 0 1 0-10.664 5.333 5.333 0 0 1 0 10.664zM26.524 7.458a1.919 1.919 0 1 1-3.838 0 1.919 1.919 0 0 1 3.838 0z"/>
    </symbol>
    <symbol id="icon-18-icon" viewBox="0 0 32 32">
      <path d="M16 0c2.411 0 4.699.534 6.75 1.489-.923.656-1.55 1.321-2.063 2.244A13.086 13.086 0 0 0 16 2.871c-3.626 0-6.908 1.47-9.284 3.845S2.871 12.374 2.871 16c0 3.625 1.47 6.908 3.845 9.284s5.658 3.845 9.284 3.845c3.625 0 6.908-1.47 9.284-3.845s3.845-5.659 3.845-9.284c0-.954-.102-1.883-.295-2.779.897-.523 1.604-1.426 2.366-2.231.519 1.576.8 3.26.8 5.009 0 4.417-1.791 8.419-4.686 11.314S20.418 31.999 16 31.999s-8.419-1.791-11.314-4.686S0 20.417 0 15.999 1.791 7.58 4.686 4.685 11.582-.001 16-.001z"/>
      <path d="M25.276 10.774V8.011h-2.539V5.769h2.539V3.006h2.362v2.763h2.558v2.242h-2.558v2.763h-2.362zM9.944 21.582v-8.31c-.158.041-.446.101-.736.154l-.115.017c-.279.051-.558.098-.838.143l-.224-1.644c.239-.056.518-.142.834-.262s.637-.254.964-.403c.326-.149.627-.304.907-.461.279-.157.498-.299.658-.428l1.345.179-.015 11.016H9.943zm9.82.12c-.683 0-1.293-.073-1.834-.214s-.999-.344-1.375-.608-.662-.583-.859-.954a2.605 2.605 0 0 1 .01-2.436c.205-.392.541-.752 1.006-1.083s1.089-.608 1.871-.832l.926 1.106a4.652 4.652 0 0 0-.809.466c-.237.171-.424.374-.558.602s-.202.501-.202.815c0 .244.059.485.179.724s.312.436.576.593.61.237 1.039.237c.274 0 .526-.065.754-.192s.414-.294.551-.501a1.18 1.18 0 0 0 .204-.668 1 1 0 0 0-.299-.724 3.116 3.116 0 0 0-.788-.566 18.973 18.973 0 0 0-1.076-.518c-.391-.174-.782-.366-1.174-.575s-.749-.456-1.076-.74c-.326-.284-.59-.623-.789-1.014s-.299-.854-.299-1.393.149-1.029.448-1.473c.299-.443.738-.797 1.316-1.061s1.285-.396 2.122-.396 1.543.114 2.113.344c.571.229 1.002.543 1.293.941s.436.853.436 1.361c0 .433-.097.852-.294 1.258s-.511.768-.942 1.081c-.431.314-1.001.551-1.709.71l-.911-1.046c.538-.164.919-.413 1.143-.745.224-.331.336-.714.336-1.153 0-.324-.122-.6-.366-.827s-.595-.339-1.054-.339c-.438 0-.785.115-1.039.347s-.381.491-.381.774c0 .309.102.583.307.822s.475.459.814.66c.339.203.709.399 1.113.589.404.189.81.388 1.216.6s.779.448 1.12.71c.342.261.616.563.823.904s.311.737.316 1.186c.005.683-.174 1.263-.538 1.744s-.862.849-1.497 1.104c-.635.254-1.358.381-2.164.381z"/>
    </symbol>
    <symbol id="icon-credit" viewBox="0 0 32 32">
      <path d="M29.318 26.858H2.681a2.365 2.365 0 0 1-2.362-2.362V7.504a2.365 2.365 0 0 1 2.362-2.362h26.634a2.365 2.365 0 0 1 2.362 2.362v16.989a2.36 2.36 0 0 1-2.358 2.365zM2.682 6.035a1.47 1.47 0 0 0-1.469 1.469v16.989c0 .81.659 1.469 1.469 1.469h26.634a1.47 1.47 0 0 0 1.469-1.469V7.504a1.47 1.47 0 0 0-1.469-1.469H2.682z"/>
      <path d="M.768 10.634h30.464v2.746H.768v-2.746zM3.12 22.771h5.302v.893H3.12v-.893zM10.016 22.771h8.56v.893h-8.56v-.893z"/>
    </symbol>
    <symbol id="icon-women" viewBox="0 0 32 32">
      <path d="M24.589 21.334c-3.933-1.418-5.19-.704-5.19-3.267 0-.122.006-.352.022-.589h.192c2.688.195 5.28.384 5.856-.019.922-.643-2.266-1.635-2.266-9.955C23.2 3.302 20.429.32 16.227.32c-.035 0-.07.003-.106.003H15.877c-.035 0-.07-.003-.106-.003-4.205 0-6.976 2.982-6.976 7.187 0 8.32-3.187 9.312-2.266 9.955.576.403 3.168.214 5.856.019h.192c.013.234.022.464.022.589 0 2.563-1.258 1.846-5.19 3.267-3.946 1.421-5.082 2.87-5.082 3.859v6.483h27.341v-6.483c0-.989-1.136-2.438-5.082-3.862z"/>
    </symbol>
    <symbol id="icon-men" viewBox="0 0 32 32">
      <path d="M24.499 21.408c-3.907-1.408-5.155-2.598-5.155-5.142 0-.282.042-.493.109-.669.307-.787 1.181-.874 1.606-3.155.218-1.162 1.27-.019 1.472-2.669 0-1.056-.576-1.318-.576-1.318s.291-1.562.406-2.765c.144-1.498-.87-5.37-6.294-5.37-.022 0-.045 0-.067.003L15.933.32c-5.421 0-6.438 3.872-6.298 5.37.115 1.203.406 2.765.406 2.765s-.576.262-.576 1.318c.202 2.65 1.254 1.507 1.472 2.669.429 2.285 1.299 2.371 1.606 3.155.067.176.109.387.109.669 0 2.544-1.248 3.734-5.155 5.142-3.917 1.411-5.677 2.851-5.677 3.834v6.438h28.358v-6.438c0-.982-1.76-2.422-5.68-3.834z"/>
    </symbol>
    <symbol id="icon-boy" viewBox="0 0 32 32">
      <path d="M31.35 27.728c-3.075-1.354-4.848-2.48-8.074-3.542-.24-.077-.528-.234-.624-.419-.262-.496-.445-1.027-.634-1.552-.118-.333-.224-.65-.653-.81-.115-.045-.221-.237-.218-.362.022-1.216-.41-2.102.122-2.579.973-.874.749-1.946 1.238-2.474.486-.531 1.69-4.291 1.459-4.774s-1.046-.256-.854-.49c1.251-1.542 1.059-5.728.573-6.55-.646-1.091-3.386-2.595-5.424-1.03-2.867-3.066-7.187-.982-9.619 1.45-.928.928-1.114 2.246-.762 3.792.256 1.126.752 1.059 1.155 2.336.051.157-.115.435-.246.47-.477.131-.49.397-.426.736.045.234.41 1.978.621 2.605.16.464.467.902.554 1.376.173.944.576 1.766 1.318 2.477.122.118.214.317.202.47a28.115 28.115 0 0 1-.259 2.176c-.022.144-.195.349-.336.378-.563.102-.65.474-.784.848-.179.496-.368.992-.589 1.472a.817.817 0 0 1-.416.371c-.998.374-2.019.717-3.024 1.078-1.072.39-3.907 2.131-4.963 2.614-.621.285-.275 2.586-.275 2.586h31.114c.003.006.442-2.381-.176-2.653z"/>
    </symbol>
    <symbol id="icon-gerl" viewBox="0 0 32 32">
      <path d="m27.52 6.15.01-.035c2.963-1.197 4.106-3.872 2.8-5.069s-2.8.534-2.8.534h-.01s-1.494-1.731-2.8-.534-.163 3.907 2.8 5.104zM15.226 31.68h12.186c0-8.15-5.366-6.218-6.771-6.989-1.066-.586-5.632-2.701-4.406-6.55 6.39.701 8.691-1.549 8.342-1.459-.355.086-2.842-1.642-2.842-9.258S14.314.326 14.314.326h-.074S6.81-.192 6.81 7.424s-2.49 9.414-2.838 9.325c-.349-.086 1.949 2.125 8.339 1.424 1.229 3.856-3.206 6.272-4.406 6.538-2.112.464-6.771-1.434-6.771 6.97h14.093z"/>
    </symbol>
    <symbol id="icon-to-gerl" viewBox="0 0 32 32">
      <path d="m15.93 11.302.01-.032c2.627-1.059 3.638-3.43 2.483-4.493-1.158-1.059-2.483.474-2.483.474h-.01s-1.325-1.533-2.483-.474c-1.158 1.062-.144 3.466 2.483 4.525zM7.898 25.594h6.554c0-4.445-2.886-3.251-3.642-3.667-.573-.314-3.03-1.405-2.371-3.478 3.437.378 4.675-.81 4.486-.762s-1.526-.867-1.526-4.963-3.99-3.802-3.99-3.802h-.038s-3.997-.278-3.997 3.818-1.338 5.059-1.526 5.011c-.189-.048 1.05 1.142 4.486.765.659 2.07-1.725 3.28-2.371 3.421-1.136.253-3.642-.787-3.642 3.658h7.578zM23.562 18.518c.659 2.07-1.725 3.28-2.371 3.421-1.136.25-3.642-.79-3.642 3.654H31.68c0-4.445-2.886-3.251-3.642-3.667-.573-.314-3.03-1.405-2.371-3.478 3.437.378 4.675-.81 4.486-.762s-1.526-.867-1.526-4.963-3.99-3.802-3.99-3.802h-.038s-3.997-.278-3.997 3.818-1.338 5.059-1.526 5.011c-.189-.045 1.05 1.142 4.486.768z"/>
    </symbol>
    <symbol id="icon-sex-women" viewBox="0 0 32 32">
      <path d="M25.44 8.077a.648.648 0 0 0 .179-.307c.797-.989 1.293-2.224 1.293-3.59a.65.65 0 0 0-1.3 0c0 2.458-2 4.454-4.454 4.454a4.457 4.457 0 0 1-4.454-4.454.649.649 0 0 0-.65-.65c-.019 0-.035.01-.054.013-.019-.003-.035-.013-.054-.013a.65.65 0 0 0-.65.65c0 2.458-2 4.454-4.458 4.454A4.46 4.46 0 0 1 6.384 4.18a.65.65 0 0 0-1.3 0c0 1.37.499 2.608 1.299 3.597a.628.628 0 0 0 .173.298c.106.099 2.576 2.502-.538 8.589-2.755 5.382-2.122 8.109-.928 11.379a.654.654 0 0 0 .832.391.65.65 0 0 0 .387-.832c-.602-1.645-1.014-3.104-.893-4.861 1.386.634 5.178 2.112 10.374 2.112 1.952 0 4.106-.218 6.403-.755.013 0 .022.006.032.006a.67.67 0 0 0 .266-.074 29.752 29.752 0 0 0 4.083-1.338c.134 1.776-.282 3.245-.886 4.906a.65.65 0 0 0 .611.87.646.646 0 0 0 .608-.426c1.194-3.27 1.824-6-.931-11.379-3.107-6.067-.659-8.474-.538-8.586zm-1.632 14.214c.138-.445.166-.8.17-.832a.646.646 0 0 0-.608-.682.652.652 0 0 0-.688.605c0 .01-.077.928-.65 1.405a26.507 26.507 0 0 1-11.955.09c-.669-.435-.758-1.462-.758-1.491a.648.648 0 0 0-1.296.074c.003.035.035.435.198.925-1.363-.419-2.272-.829-2.602-.989.253-1.184.73-2.515 1.558-4.138 1.837-3.587 1.901-6.112 1.507-7.75a5.688 5.688 0 0 0 2.157.429c2.275 0 4.224-1.334 5.158-3.251.934 1.917 2.886 3.251 5.155 3.251.765 0 1.491-.157 2.16-.429-.394 1.638-.33 4.166 1.507 7.75.826 1.616 1.299 2.938 1.555 4.115-.874.362-1.728.659-2.57.918z"/>
      <path d="M16 18.579a.915.915 0 1 1 0 1.83.915.915 0 0 1 0-1.83zM29.501 10.102V8.515l-3.226 3.222 3.226 3.226v-1.59h2.179v-3.27zM5.725 11.741 2.499 8.519v1.587H.32v3.27h2.179v1.587z"/>
    </symbol>
    <symbol id="icon-masag" viewBox="0 0 32 32">
      <path d="M20.739 29.981H.32v-1.904c.371.294.845.474 1.357.474h17.654l1.408 1.43zM9.155 2.019c-1.094 0-1.984.89-1.984 1.984 0 .682.342 1.28.867 1.638.224-.624.592-1.197 1.075-1.683s1.059-.848 1.683-1.075a1.987 1.987 0 0 0-1.642-.864zm-.566 5.2a3.783 3.783 0 0 0 7.564 0 3.783 3.783 0 0 0-3.782-3.782c-.445 0-.87.077-1.264.214a3.795 3.795 0 0 0-2.519 3.568zm-2.051 5.216c-.886 1.965-2.816 6.982-3.347 8.246H9.78c.147-.358.307-.707.486-1.034.621-1.158 2.557-1.731 2.096-3.347-.003-.013-.01-.026-.013-.042l1.734 1.645c.128.122.285.221.451.285l4.742 1.811a1.362 1.362 0 0 0 1.76-.79 1.361 1.361 0 0 0-.79-1.76l-4.192-1.603a1.668 1.668 0 0 1-.528-.333l-3.696-3.507a1.453 1.453 0 0 0-.57-.314l-.157-.048-.176-.048c-.922-.246-1.946-.454-2.896-.371-.31.026-.653.106-.918.288-.301.221-.429.595-.576.922zM1.677 27.722h18l1.725 1.747c.163.166.358.294.566.381.205.083.426.128.65.128h7.35c.957 0 1.725-.784 1.712-1.738-.016-.938-.8-1.683-1.738-1.683h-6.608l-4.493-4.554c-.349-.355-.554-.502-1.178-.502l-15.987.01c-.749 0-1.357.608-1.357 1.357v3.498c0 .749.608 1.357 1.357 1.357zm27.536-6.256a3.924 3.924 0 1 0-7.848.002 3.924 3.924 0 0 0 7.848-.002z"/>
    </symbol>
    <symbol id="icon-gellery" viewBox="0 0 32 32">
      <path d="M23.674 14.861c-1.456.694-2.643 2.797-4.032 1.408-.845-.915-1.846-2.374-2.995-4.022-1.245-1.773-2.829-3.296-4.694-1.555-2.083 1.962-3.514 7.277-3.638 10.013l19.68.006c-.448-1.606-2.198-6.861-4.32-5.85zM23.584 6.931a2.419 2.419 0 1 1 0 4.838 2.419 2.419 0 0 1 0-4.838z"/>
      <path d="M30.96 3.83H5.35a.72.72 0 0 0-.72.72v3.638H1.04a.72.72 0 0 0-.72.72v18.547c0 .397.323.72.72.72h25.61a.72.72 0 0 0 .72-.72v-3.642h3.594a.72.72 0 0 0 .72-.72V4.546a.723.723 0 0 0-.723-.717zm-5.523 22.41H2.25V10.118h2.381v11.21c-.362 1.395-.582 2.736-.63 3.734l19.683.006a21.815 21.815 0 0 0-.397-1.254h2.147v2.426zm4.31-4.358H6.563V5.76h23.184v16.122z"/>
    </symbol>
    <symbol id="icon-photo" viewBox="0 0 32 32">
      <path d="M4.896 14.102H.32v13.002c0 .784.634 1.418 1.418 1.418h28.326a1.63 1.63 0 0 0 1.619-1.619V9.325a1.53 1.53 0 0 0-1.542-1.542h-7.286a1.5 1.5 0 0 1-1.491-1.29l-.253-1.67c-.128-.733-.758-1.341-1.491-1.341h-7.286c-.758 0-1.392.582-1.491 1.341l-.253 1.67a1.521 1.521 0 0 1-1.491 1.29H1.838A1.52 1.52 0 0 0 .321 9.3v1.264h4.576c.96 0 1.744.784 1.744 1.744v.026a1.75 1.75 0 0 1-1.744 1.77zm22.736-3.488c.986 0 1.77.784 1.77 1.77s-.784 1.77-1.77 1.77a1.76 1.76 0 0 1-1.77-1.77c0-.96.784-1.77 1.77-1.77zm-11.555.631c4.198 0 7.587 3.389 7.587 7.587s-3.389 7.587-7.587 7.587S8.49 23.03 8.49 18.832s3.414-7.587 7.587-7.587z"/>
      <path d="M19.792 18.832a3.792 3.792 0 1 1-7.585 0 3.792 3.792 0 0 1 7.585 0z"/>
    </symbol>
    <symbol id="icon-map-location" viewBox="0 0 32 32">
      <path d="M16 .32c-5.411 0-9.802 4.387-9.802 9.802C6.201 16.98 16 31.68 16 31.68s9.802-14.701 9.802-21.562C25.802 4.707 21.412.32 16 .32zm.912 17.581c-.301.026-.592.058-.912.058s-.611-.032-.912-.058c-3.901-.451-6.928-3.76-6.928-7.779a7.84 7.84 0 1 1 15.68 0c0 4.019-3.034 7.328-6.928 7.779z"/>
      <path d="M19.92 10.122a3.92 3.92 0 1 1-7.84 0 3.92 3.92 0 0 1 7.84 0z"/>
    </symbol>
    <symbol id="icon-visible" viewBox="0 0 32 32">
      <path d="M31.274 14.902c-.275-.326-6.858-7.946-15.274-7.946S1.002 14.575.726 14.898a1.691 1.691 0 0 0 0 2.198c.275.326 6.858 7.946 15.274 7.946s14.998-7.619 15.274-7.942a1.691 1.691 0 0 0 0-2.198zM18.57 11.533c.566-.307 1.354.045 1.763.79.406.746.278 1.6-.288 1.91s-1.354-.045-1.763-.79c-.406-.746-.278-1.6.288-1.91zM16 22.282c-5.878 0-10.826-4.515-12.538-6.282 1.155-1.194 3.789-3.638 7.187-5.101a6.377 6.377 0 0 0-1.053 3.51 6.403 6.403 0 0 0 12.806 0 6.367 6.367 0 0 0-1.05-3.51c3.395 1.462 6.029 3.907 7.184 5.101-1.712 1.77-6.659 6.282-12.538 6.282z"/>
    </symbol>
    <symbol id="icon-system" viewBox="0 0 32 32">
      <path d="M30.592 2.733H1.408A1.09 1.09 0 0 0 .32 3.821v24.355c0 .602.486 1.088 1.088 1.088h29.184c.602 0 1.088-.486 1.088-1.088V3.821c0-.602-.486-1.088-1.088-1.088zm-3.267 2.208a1.101 1.101 0 1 1 0 2.202 1.101 1.101 0 0 1 0-2.202zm-3.92 0a1.101 1.101 0 1 1 0 2.202 1.101 1.101 0 0 1 0-2.202zm-3.92 0a1.101 1.101 0 1 1 0 2.202 1.101 1.101 0 0 1 0-2.202zm10.016 22.15H2.499V9.123h27.005v17.968h-.003z"/>
      <path d="M17.52 15.907h-1.181a5.395 5.395 0 0 0-.493-1.181l.851-.851a.983.983 0 0 0 0-1.386l-.691-.691a.983.983 0 0 0-1.386 0l-.867.867a5.47 5.47 0 0 0-1.104-.448v-1.181a.972.972 0 0 0-.973-.973h-.973a.972.972 0 0 0-.973.973v1.181c-.4.115-.784.272-1.142.47l-.89-.89a.983.983 0 0 0-1.386 0l-.691.691a.983.983 0 0 0 0 1.386l.89.89a5.432 5.432 0 0 0-.47 1.142H4.86a.972.972 0 0 0-.973.973v.973c0 .538.435.973.973.973h1.181a5.3 5.3 0 0 0 .448 1.104l-.867.864a.983.983 0 0 0 0 1.386l.691.691a.983.983 0 0 0 1.386 0l.851-.851c.368.208.765.374 1.181.493v1.181c0 .538.435.973.973.973h.973a.972.972 0 0 0 .973-.973v-1.181c.4-.115.784-.272 1.142-.47l.829.829a.983.983 0 0 0 1.386 0l.691-.691a.983.983 0 0 0 0-1.386l-.829-.826c.198-.358.355-.739.47-1.142h1.181a.972.972 0 0 0 .973-.973v-.973a.972.972 0 0 0-.973-.973zm-6.33 4.381a2.923 2.923 0 0 1 0-5.844 2.923 2.923 0 0 1 0 5.844zm0-4.381a1.461 1.461 0 1 0-.001 2.923 1.461 1.461 0 0 0 .001-2.923zM26.832 19.354h-.755a3.61 3.61 0 0 0-.314-.755l.544-.544a.626.626 0 0 0 0-.883l-.442-.442a.626.626 0 0 0-.883 0l-.554.554a3.404 3.404 0 0 0-.704-.285v-.755a.622.622 0 0 0-.621-.621h-.621a.622.622 0 0 0-.621.621v.755a3.441 3.441 0 0 0-.73.301l-.566-.566a.626.626 0 0 0-.883 0l-.451.442a.626.626 0 0 0 0 .883l.566.566a3.42 3.42 0 0 0-.301.73h-.755a.622.622 0 0 0-.621.621v.621c0 .342.278.621.621.621h.755c.07.246.163.483.285.704l-.55.56a.626.626 0 0 0 0 .883l.442.442c.243.243.64.243.883 0l.544-.544c.237.134.486.24.755.314v.755c0 .342.278.621.621.621h.621a.622.622 0 0 0 .621-.621v-.755c.256-.074.502-.173.73-.301l.528.528c.243.243.64.243.883 0l.442-.442a.626.626 0 0 0 0-.883l-.525-.525a3.42 3.42 0 0 0 .301-.73h.755a.622.622 0 0 0 .621-.621v-.621a.624.624 0 0 0-.621-.627zm-4.045 2.8a1.866 1.866 0 1 1 0-3.732 1.866 1.866 0 0 1 0 3.732zm0-2.8a.935.935 0 0 0 0 1.868.935.935 0 0 0 0-1.868z"/>
    </symbol>
    <symbol id="icon-wine" viewBox="0 0 32 32">
      <path d="M15.376 16.134c0-1.293-.32-2.541-.931-3.616l-.144-.253H5.216l-.141.253c-.611 1.072-.931 2.323-.931 3.616 0 3.296 2.099 6.026 4.819 6.48v7.696c-1.571.064-2.739.301-2.739.586 0 .336 1.594.605 3.562.605s3.568-.269 3.568-.605c0-.282-1.171-.522-2.739-.586v-7.702c2.691-.48 4.762-3.2 4.762-6.474zM9.76 21.677c-2.541 0-4.611-2.483-4.611-5.542 0-1.018.227-2.003.666-2.864h7.898c.435.864.666 1.85.666 2.864-.003 3.059-2.077 5.542-4.618 5.542zM24.992 3.782h-3.994V.32h3.994v3.462zm0 4.295V4.848h-3.994v3.229a4.858 4.858 0 0 0-2.864 4.429V31.68h9.725V12.509a4.866 4.866 0 0 0-2.867-4.432zm2.006 18.713h-7.92v-9.504h7.92v9.504zM13.955 16.24s-.211 5.024-4.128 5.024-4.448-5.024-4.448-5.024h8.576z"/>
    </symbol>
    <symbol id="icon-money-stack" viewBox="0 0 32 32">
      <path d="M27.434 9.517c.208-.435.326-.89.326-1.357V6.198C27.76 2.953 22.496.32 16 .32S4.24 2.954 4.24 6.202c0-.16.022-.317.048-.474C1.859 6.8.32 8.371.32 10.122v1.962c0 1.818 1.654 3.443 4.246 4.522a3.148 3.148 0 0 0-.326 1.36v1.962c0 .688.25 1.344.685 1.962-.435.614-.685 1.27-.685 1.962v1.962c0 3.235 5.264 5.869 11.76 5.869s11.76-2.634 11.76-5.882v-1.958c0-.701-.259-1.37-.707-1.99-.003.003-.006.01-.013.013.33-.467.589-.954.669-1.469 2.429-1.078 3.968-2.646 3.968-4.394v-1.962c.003-1.818-1.651-3.443-4.243-4.522zM16 1.299c6.352 0 10.781 2.582 10.781 4.899S22.352 11.097 16 11.097 5.219 8.515 5.219 6.198 9.648 1.299 16 1.299zM1.299 10.122c0-1.146 1.085-2.349 2.941-3.28V8.16c0 3.245 5.264 5.882 11.76 5.882.97 0 1.907-.064 2.81-.176-1.798.691-4.08 1.155-6.73 1.155-6.352 0-10.781-2.586-10.781-4.899zM26.781 23.84c0 2.317-4.429 4.899-10.781 4.899S5.219 26.157 5.219 23.84c0-.384.163-.774.397-1.162-.003-.003-.006-.006-.006-.01 1.974 1.862 5.885 3.133 10.39 3.133 4.512 0 8.403-1.28 10.374-3.146l-.003.003c.24.394.41.787.41 1.181zm-4.048-2.138c-1.798.694-4.083 1.155-6.733 1.155-6.352 0-10.781-2.586-10.781-4.899 0-.333.115-.669.288-1.002.96.323 2.022.579 3.158.749 1.462 2.416 5.946 4.176 11.251 4.176a22.4 22.4 0 0 0 2.822-.179h-.006zm-2.813-2.761c-2.515 0-4.707-.413-6.467-1.046 5.526-.326 9.891-2.544 10.339-5.338 1.334-.592 2.403-1.328 3.088-2.166h-.003c2.374.963 3.821 2.342 3.821 3.651.003 2.314-4.426 4.899-10.778 4.899zM18.093 7.629c0-.208-.163-.365-.493-.47s-1.062-.246-2.198-.41c-1.021-.144-1.818-.288-2.394-.429s-1.04-.339-1.398-.592c-.358-.256-.538-.554-.538-.893 0-.445.32-.845.96-1.203.64-.355 1.645-.57 3.021-.65v-.701h1.856v.701c2.074.102 3.418.582 4.029 1.443l-2.557.429c-.499-.589-1.27-.883-2.314-.883-.525 0-.944.064-1.261.198-.317.131-.477.291-.477.48 0 .192.154.336.461.442.304.102.96.227 1.965.378 1.104.163 1.968.32 2.595.467.627.144 1.126.349 1.504.608.374.259.56.56.56.906 0 .531-.387.973-1.158 1.328s-1.885.563-3.341.627v.899h-1.856v-.902c-2.429-.102-3.933-.682-4.512-1.734l2.87-.307c.266.662 1.146.992 2.64.992.698 0 1.216-.07 1.546-.211s.49-.31.49-.512z"/>
    </symbol>
    <symbol id="icon-credit-cards" viewBox="0 0 32 32">
      <path d="M28.394 10.758v2.71l.131.32-.131.054v4.781l1.805-.736.397.966a.828.828 0 0 1-.438 1.085L8.392 28.821c-.413.17-.899-.051-1.072-.467l-.394-.97 16.656-6.797H11.87l-6.618 2.701-1.101-2.701H3.044l3.328 8.154a1.855 1.855 0 0 0 2.41 1.031l21.763-8.883a1.854 1.854 0 0 0 .998-2.419l-3.149-7.712z"/>
      <path d="M22.394 13.328v-.659l-.384.659zM9.181 12.669l-.381.659h.381zM11.683 13.613a.316.316 0 0 0 .058-.195.3.3 0 0 0-.064-.205.207.207 0 0 0-.16-.07.202.202 0 0 0-.134.048c-.058.045-.09.118-.09.221 0 .083.022.15.067.202s.102.077.17.077a.202.202 0 0 0 .154-.077zM4.723 17.312a.265.265 0 0 0 .16-.051c.048-.032.074-.093.074-.182v-.099a.26.26 0 0 1-.121.042l-.061.013a.447.447 0 0 0-.122.035.123.123 0 0 0-.064.112c0 .045.013.077.038.096a.157.157 0 0 0 .096.035zM15.114 13.683a.217.217 0 0 0 .163-.061c.038-.042.058-.099.058-.176s-.019-.138-.061-.176c-.042-.042-.093-.061-.16-.061s-.122.019-.16.061-.061.099-.061.176c0 .074.019.134.058.176s.096.061.163.061zM7.555 16.653c-.067 0-.122.019-.157.058a.263.263 0 0 0-.07.157h.454c-.003-.07-.029-.122-.07-.16s-.093-.054-.157-.054zM16.314 12.602a.218.218 0 0 0-.131.042c-.058.045-.086.122-.086.23 0 .09.019.157.054.205.038.045.093.067.17.067.042 0 .08-.013.118-.035.067-.045.102-.118.102-.227a.311.311 0 0 0-.061-.205.195.195 0 0 0-.166-.077zM15.114 12.979c.061 0 .109-.019.141-.054s.051-.08.051-.138c0-.061-.016-.109-.051-.141-.032-.035-.08-.051-.141-.051s-.109.016-.141.051a.191.191 0 0 0-.051.141c0 .054.016.099.051.138.032.035.08.054.141.054zM10.778 17.037a.496.496 0 0 0-.122.035.123.123 0 0 0-.064.112c0 .045.013.077.038.096s.058.029.093.029a.265.265 0 0 0 .16-.051c.048-.032.074-.093.077-.182v-.096a.271.271 0 0 1-.051.026.55.55 0 0 1-.07.019l-.061.013zM15.2 17.037a.447.447 0 0 0-.122.035.123.123 0 0 0-.064.112c0 .045.013.077.038.096s.058.029.093.029a.265.265 0 0 0 .16-.051c.048-.032.074-.093.077-.182v-.096c-.016.01-.035.019-.051.026s-.042.013-.07.019l-.061.013zM17.824 16.71a.263.263 0 0 0-.07.157h.454a.234.234 0 0 0-.07-.16.235.235 0 0 0-.157-.054c-.067 0-.122.019-.157.058zM24.736 13.686a.192.192 0 0 0 .157-.074.316.316 0 0 0 .058-.195c0-.09-.022-.157-.067-.205s-.096-.07-.16-.07a.202.202 0 0 0-.134.048c-.058.045-.09.118-.09.221 0 .083.022.15.067.202a.225.225 0 0 0 .17.074zM2.931 13.546c.029.093.086.141.176.141s.147-.048.176-.141c.026-.08.035-.195.038-.336 0-.022.003-.042.003-.064 0-.186-.013-.32-.042-.41s-.086-.134-.176-.134-.147.045-.176.134-.045.224-.045.41c0 .09.003.17.013.237a.922.922 0 0 0 .032.163z"/>
      <path d="M1.389 19.466c.237.112.502.182.781.182h23.728c.499 0 .95-.205 1.286-.531.346-.342.566-.819.566-1.347V3.972c0-.528-.218-1.005-.566-1.344a1.843 1.843 0 0 0-1.286-.531H2.173C1.152 2.094.32 2.939.32 3.972V17.77c0 .752.442 1.395 1.069 1.696zm1.193-6.324c0-.253.038-.448.118-.586.077-.138.214-.205.41-.205s.333.07.41.205c.07.125.106.304.112.525 0 .022.006.038.006.061 0 .253-.038.448-.118.582-.077.138-.214.205-.41.205s-.333-.067-.41-.205a.963.963 0 0 1-.083-.23 1.663 1.663 0 0 1-.035-.352zm14.336-6.128a2.531 2.531 0 0 1 2.528-2.528c.55 0 1.056.182 1.472.48a2.49 2.49 0 0 1 1.565-.56c.509 0 .982.154 1.379.416.33.214.595.509.794.848.214.371.349.797.349 1.258a2.52 2.52 0 0 1-2.518 2.518 2.482 2.482 0 0 1-1.459-.474c-.435.352-.979.57-1.578.57a2.513 2.513 0 0 1-1.997-.995 2.528 2.528 0 0 1-.448-.925 2.266 2.266 0 0 1-.086-.608zm-.476 9.725c-.022-.048-.067-.074-.131-.074-.077 0-.125.026-.154.074a.315.315 0 0 0-.019.125v.605h-.266v-1.008h.256v.147a.386.386 0 0 1 .093-.112.326.326 0 0 1 .198-.061c.077 0 .138.016.186.051a.305.305 0 0 1 .086.122.336.336 0 0 1 .128-.131.379.379 0 0 1 .313-.016.287.287 0 0 1 .118.093.277.277 0 0 1 .058.131c.006.035.01.083.01.15l-.003.637h-.269v-.643a.192.192 0 0 0-.019-.093c-.022-.045-.067-.07-.128-.07-.074 0-.122.032-.15.093a.254.254 0 0 0-.022.115v.598h-.266v-.602a.328.328 0 0 0-.019-.131zm.019-3.401a.471.471 0 0 1-.531-.074c-.093-.083-.141-.205-.141-.365 0-.163.048-.298.141-.4a.483.483 0 0 1 .368-.154c.234 0 .394.102.48.31.051.115.074.272.074.461 0 .186-.022.339-.07.464-.09.237-.256.352-.496.352-.115 0-.218-.035-.31-.102s-.144-.166-.157-.298h.298a.172.172 0 0 0 .183.151c.099 0 .17-.054.208-.163a.994.994 0 0 0 .042-.266.27.27 0 0 1-.086.083zm-1.795-.42a.454.454 0 0 1-.032-.16.38.38 0 0 1 .125-.285c.083-.077.202-.118.355-.118s.272.038.355.118a.375.375 0 0 1 .125.285.516.516 0 0 1-.032.16c-.022.058-.07.106-.144.15a.452.452 0 0 1 .17.166.48.48 0 0 1 .058.234c0 .128-.048.24-.144.33s-.227.134-.4.134c-.173 0-.301-.045-.387-.134s-.131-.198-.131-.33c0-.086.019-.163.058-.234s.096-.122.17-.157a.36.36 0 0 1-.144-.16zm.675 3.754a.264.264 0 0 0-.128-.026c-.064 0-.109.016-.134.048a.185.185 0 0 0-.038.093h-.256a.417.417 0 0 1 .074-.218c.07-.09.189-.134.362-.134.112 0 .208.022.294.064.086.045.128.128.128.25v.467c0 .032 0 .07.003.115.003.035.006.058.016.07s.022.022.038.032v.038h-.288c-.01-.019-.013-.038-.016-.058s-.006-.038-.006-.061a.509.509 0 0 1-.125.102.396.396 0 0 1-.195.051c-.093 0-.166-.026-.227-.077s-.09-.125-.09-.221c0-.125.048-.214.144-.269a.665.665 0 0 1 .234-.064l.09-.01a.476.476 0 0 0 .106-.022c.038-.016.058-.042.058-.074 0-.054-.013-.083-.042-.099zm-1.056.064c-.026-.051-.074-.077-.147-.077-.09 0-.15.038-.182.112a.415.415 0 0 0-.026.154v.544h-.266v-1.008h.256v.147a.383.383 0 0 1 .096-.112.322.322 0 0 1 .205-.061c.106 0 .189.026.253.083.067.054.099.144.099.272v.678h-.269v-.614c.003-.051-.003-.093-.019-.118zm-1.466.534c.01.01.042.016.096.016h.026c.01 0 .016 0 .026-.003v.198l-.125.006c-.125.003-.208-.019-.256-.064-.029-.032-.045-.077-.045-.141v-.621H12.4v-.189h.141v-.282h.262v.282h.163v.189h-.163v.534c0 .035.006.061.016.074zm.055-4.064a1.9 1.9 0 0 0-.115.349 1.42 1.42 0 0 0-.051.339h-.31c.01-.275.099-.56.269-.854.112-.182.205-.31.278-.384h-.762l.003-.269h1.082v.237a1.817 1.817 0 0 0-.189.237 1.416 1.416 0 0 0-.205.346zm-4.298.356V13.3l.563-.928h.339v.957h.173v.234h-.173v.33h-.294v-.33h-.608zm.688 2.544h.285v1.117h.682v.246h-.966v-1.363zm.669-2.292a.465.465 0 0 1-.157-.333h.298c.013.064.035.115.067.15s.083.054.147.054a.196.196 0 0 0 .17-.08.325.325 0 0 0 .058-.198c0-.077-.019-.144-.054-.198s-.093-.08-.17-.08a.294.294 0 0 0-.096.013.18.18 0 0 0-.106.093l-.269-.013.109-.845h.842v.256h-.624l-.054.333a.597.597 0 0 1 .109-.061.466.466 0 0 1 .16-.026c.125 0 .237.042.33.128s.141.208.141.371c0 .141-.045.266-.134.378s-.227.166-.406.166a.51.51 0 0 1-.358-.109zm.985 2.858a.264.264 0 0 0-.128-.026c-.064 0-.109.016-.134.048a.185.185 0 0 0-.038.093h-.253a.417.417 0 0 1 .074-.218c.07-.09.192-.134.362-.134.112 0 .208.022.294.064.086.045.128.128.128.25v.467c0 .032 0 .07.003.115.003.035.006.058.016.07s.022.022.038.032v.038h-.288c-.006-.019-.013-.038-.016-.058s-.006-.038-.006-.061a.509.509 0 0 1-.125.102.396.396 0 0 1-.195.051c-.093 0-.166-.026-.227-.077s-.09-.125-.09-.221c0-.125.048-.214.144-.269a.665.665 0 0 1 .234-.064l.09-.01a.476.476 0 0 0 .106-.022c.035-.019.054-.045.054-.077 0-.051-.013-.08-.042-.096zm.176-2.982a.991.991 0 0 1-.106-.486c0-.115.003-.211.016-.285a.888.888 0 0 1 .102-.326c.045-.074.102-.134.173-.179s.154-.067.253-.067c.141 0 .256.035.339.109s.131.17.144.291h-.298a.146.146 0 0 0-.029-.08c-.032-.048-.08-.07-.147-.07-.099 0-.166.054-.208.163a1.11 1.11 0 0 0-.048.269.312.312 0 0 1 .131-.096.464.464 0 0 1 .17-.032c.134 0 .246.045.333.138s.131.211.131.352c0 .144-.042.269-.128.378s-.218.163-.397.163a.462.462 0 0 1-.432-.24zm.916 3.449a1.472 1.472 0 0 0-.275-.08c-.115-.029-.195-.064-.243-.106s-.07-.102-.07-.182c0-.093.035-.173.109-.24s.176-.102.31-.102c.125 0 .227.026.307.077s.125.134.138.259h-.262a.147.147 0 0 0-.029-.08c-.029-.035-.08-.054-.147-.054-.058 0-.099.01-.122.026-.026.019-.035.038-.035.064 0 .032.013.051.038.064.026.016.118.038.275.074.106.026.186.061.237.112s.077.112.077.189a.303.303 0 0 1-.112.243c-.074.064-.189.096-.346.096-.16 0-.275-.032-.352-.099s-.115-.154-.115-.256h.269a.19.19 0 0 0 .035.099c.032.035.093.054.182.054.051 0 .093-.006.125-.022s.045-.038.045-.07a.088.088 0 0 0-.038-.064zm-4.583.115a.27.27 0 0 0 .147.038.219.219 0 0 0 .147-.048.215.215 0 0 0 .054-.07h.269a.3.3 0 0 1-.099.182c-.09.099-.218.147-.381.147-.134 0-.253-.042-.355-.125s-.154-.218-.154-.403c0-.176.045-.307.141-.403a.487.487 0 0 1 .362-.141c.086 0 .166.016.237.048.07.029.128.08.173.15a.51.51 0 0 1 .08.208c.006.048.01.115.01.202h-.736c.003.099.038.173.106.214zm-.243-4.483a.33.33 0 0 1-.186.307c.029 0 .067.022.118.07.077.07.115.166.115.291 0 .128-.045.243-.134.342s-.224.147-.397.147c-.214 0-.365-.07-.451-.211a.638.638 0 0 1-.074-.294h.294c0 .061.01.112.029.15.035.074.102.112.198.112.058 0 .109-.019.154-.061s.064-.099.064-.176c0-.102-.042-.166-.122-.202a.604.604 0 0 0-.218-.029v-.214a.581.581 0 0 0 .205-.029c.045-.019.07-.061.083-.109.006-.022.016-.042.016-.07 0-.058-.016-.106-.051-.141s-.083-.054-.144-.054c-.07 0-.122.022-.157.067a.285.285 0 0 0-.048.179h-.282a.773.773 0 0 1 .038-.214.523.523 0 0 1 .115-.166c.038-.035.086-.064.141-.083s.122-.029.198-.029a.54.54 0 0 1 .355.112.36.36 0 0 1 .128.272c.003.013.01.022.01.032zm-.582 3.962c-.022-.048-.067-.07-.131-.07-.074 0-.122.029-.15.09a.254.254 0 0 0-.022.115v.602h-.266v-.602a.328.328 0 0 0-.019-.131c-.022-.048-.064-.074-.131-.074-.074 0-.125.026-.154.074a.315.315 0 0 0-.019.125v.608h-.269v-1.008h.256v.147a.432.432 0 0 1 .093-.112.326.326 0 0 1 .198-.061.3.3 0 0 1 .186.051.28.28 0 0 1 .086.122.336.336 0 0 1 .128-.131.379.379 0 0 1 .313-.016.291.291 0 0 1 .176.221.88.88 0 0 1 .01.15l-.003.637h-.269v-.643a.15.15 0 0 0-.013-.093zm12.275-4.061c-.035-.042-.086-.064-.154-.064-.093 0-.154.035-.186.102a.554.554 0 0 0-.035.189h-.291a.79.79 0 0 1 .07-.317c.08-.154.224-.227.426-.227.163 0 .291.045.387.134s.144.208.144.355a.484.484 0 0 1-.102.301 1.018 1.018 0 0 1-.218.195l-.122.086a2.388 2.388 0 0 0-.154.115.343.343 0 0 0-.07.083h.669v.266h-1.046a.728.728 0 0 1 .07-.301c.045-.102.144-.211.304-.323.138-.099.227-.17.269-.214a.31.31 0 0 0 .093-.218.236.236 0 0 0-.054-.163zm-.659 3.811a.4.4 0 0 1 .176.15.51.51 0 0 1 .08.208c.006.048.01.115.01.202h-.736c.003.099.038.173.106.214a.27.27 0 0 0 .147.038.234.234 0 0 0 .147-.045.181.181 0 0 0 .054-.07h.269a.3.3 0 0 1-.099.182.487.487 0 0 1-.378.147c-.134 0-.253-.042-.355-.125s-.154-.218-.154-.403c0-.176.045-.307.138-.403a.491.491 0 0 1 .362-.141.523.523 0 0 1 .234.045zm-.474-2.592h-.307v-1.056h-.358v-.205c.096-.003.16-.01.198-.019a.263.263 0 0 0 .147-.08.27.27 0 0 0 .058-.109c.006-.029.013-.048.013-.061h.253v1.53zm3.462-.643a.615.615 0 0 0-.218-.029v-.214a.581.581 0 0 0 .205-.029c.067-.029.099-.09.099-.179 0-.058-.016-.106-.051-.141s-.083-.054-.144-.054c-.07 0-.122.022-.157.067a.306.306 0 0 0-.048.179h-.282a.773.773 0 0 1 .038-.214.523.523 0 0 1 .115-.166c.038-.035.086-.064.141-.083s.122-.029.198-.029c.147 0 .266.038.355.112s.134.176.134.304c0 .09-.029.166-.08.227a.326.326 0 0 1-.106.08c.029 0 .067.022.118.07.077.07.115.17.115.291 0 .128-.045.243-.134.342s-.221.147-.397.147c-.214 0-.368-.07-.451-.211a.638.638 0 0 1-.074-.294h.294c0 .061.01.112.029.154.035.074.102.112.198.112a.212.212 0 0 0 .154-.061c.045-.042.067-.099.067-.176.003-.106-.038-.17-.122-.205zm1.655.08v.234h-.173v.33h-.294v-.33h-.605V13.3l.56-.928h.339v.957h.173zm.816-.115c-.035-.054-.093-.08-.17-.08a.294.294 0 0 0-.096.013.18.18 0 0 0-.106.093l-.269-.013.106-.845h.842v.256h-.624l-.054.333a.512.512 0 0 1 .109-.061.466.466 0 0 1 .16-.026c.128 0 .237.042.33.128s.141.208.141.371c0 .141-.045.266-.134.378s-.227.166-.406.166c-.144 0-.266-.038-.358-.115s-.147-.189-.157-.333h.301a.312.312 0 0 0 .067.15.198.198 0 0 0 .147.054.196.196 0 0 0 .17-.08.325.325 0 0 0 .058-.198.346.346 0 0 0-.054-.192zm1.549-.467h-.298a.146.146 0 0 0-.029-.08c-.032-.048-.08-.07-.147-.07-.099 0-.17.054-.208.163a1 1 0 0 0-.045.269.312.312 0 0 1 .131-.096.464.464 0 0 1 .17-.032c.134 0 .246.045.333.138s.131.211.131.352a.608.608 0 0 1-.128.378c-.086.109-.218.163-.397.163a.453.453 0 0 1-.426-.243.991.991 0 0 1-.106-.486c0-.115.006-.211.016-.285a.852.852 0 0 1 .102-.326c.045-.074.102-.134.173-.179s.154-.067.253-.067c.141 0 .256.035.339.109a.487.487 0 0 1 .134.294zm-19.728-.391c.163 0 .291.045.387.134s.144.208.144.355a.467.467 0 0 1-.102.301 1.005 1.005 0 0 1-.214.192l-.003.003-.122.086a2.388 2.388 0 0 0-.154.115.343.343 0 0 0-.07.083h.669v.266H4.987a.751.751 0 0 1 .064-.282c.003-.006.003-.013.006-.019.042-.102.144-.211.304-.323.138-.099.227-.17.269-.214a.31.31 0 0 0 .093-.218c0-.064-.019-.118-.054-.16s-.086-.064-.154-.064c-.093 0-.154.035-.186.102a.5.5 0 0 0-.032.189h-.291a.79.79 0 0 1 .07-.317.4.4 0 0 1 .144-.15c.029-.016.061-.026.093-.038a.472.472 0 0 1 .186-.042zm-2.186 5.114h-.266v-1.363h.298l.541.95v-.95h.266v1.363h-.285l-.554-.966v.966zm.912-3.578v-1.056h-.362v-.205c.096-.003.16-.01.198-.019a.263.263 0 0 0 .147-.08.27.27 0 0 0 .058-.109c.006-.029.013-.048.013-.061h.253v1.53h-.307zm-.989-4.777v-.973h.976v.995h-.976c.003-.01 0-.016 0-.022zm.979 1.299a1.364 1.364 0 0 1-.867-.768h.867v.768zm.512-.765h.845v.829h-.845v-.829zm1.357 0h.867a1.38 1.38 0 0 1-.867.768v-.768zm.976-.534c0 .006-.003.013-.003.022h-.973v-.995h.976v.973zM5.827 7.626h-.256v1.507h-.845V6.65h.97c.614 0 1.13.413 1.299.973l-1.168.003zm-1.613 0h-.912c.131-.438.474-.781.912-.912v.912zm.26 9.308a.665.665 0 0 1 .234-.064l.09-.013a.476.476 0 0 0 .106-.022c.038-.016.058-.042.058-.074 0-.042-.016-.07-.045-.086s-.07-.026-.128-.026c-.064 0-.109.016-.134.048a.185.185 0 0 0-.038.093h-.253a.405.405 0 0 1 .074-.218c.07-.09.189-.134.362-.134.112 0 .208.022.294.064.086.045.128.128.128.25v.464c0 .032 0 .07.003.118.003.035.006.058.016.07s.022.022.038.032v.038h-.288a.34.34 0 0 1-.022-.119.62.62 0 0 1-.125.102.394.394 0 0 1-.195.048c-.093 0-.166-.026-.227-.077s-.09-.125-.09-.221c0-.131.048-.221.144-.275z"/>
      <path d="M17.946 8.346a1.993 1.993 0 0 0 2.656.317h.845c.006-.003.01-.013.016-.016.138-.109.262-.234.368-.371h-1.472a2.415 2.415 0 0 1-.163-.301h1.834c.067-.125.122-.253.163-.39h-2.125c-.01-.032-.022-.061-.029-.093-.019-.08-.026-.163-.035-.243h2.262c.016-.099.032-.202.032-.304 0-.029-.006-.054-.01-.083h-2.317c.003-.112.016-.221.032-.326h2.25a2.06 2.06 0 0 0-.115-.39H20.1c.038-.115.083-.227.138-.336h1.731c-.035-.058-.083-.109-.122-.163-.058-.077-.106-.16-.173-.227h-1.197c.022-.032.048-.058.074-.09a2 2 0 0 0-1.101-.333 2.018 2.018 0 0 0-1.971 2.432c.07.352.237.662.467.918z"/>
    </symbol>
    <symbol id="icon-payroll" viewBox="0 0 32 32">
      <path d="M29.734 17.024V28.95H6.854V17.024h22.88zm1.946-1.946H4.909v15.821H31.68V15.078z"/>
      <path d="m24.378 15.078 2.739 2.739c-.019.102-.061.195-.061.301 0 .874.707 1.578 1.578 1.578.106 0 .198-.042.301-.061l2.739 2.739v-7.302h-7.296zM27.786 22.989c0-.874-.707-1.578-1.581-1.578s-1.578.707-1.578 1.578c0 .874.707 1.578 1.578 1.578s1.581-.707 1.581-1.578zM18.294 18.832c-2.637 0-4.778 1.859-4.778 4.154s2.138 4.154 4.778 4.154c2.637 0 4.778-1.859 4.778-4.154 0-2.291-2.141-4.154-4.778-4.154zM10.384 24.566a1.577 1.577 0 1 0 0-3.156 1.577 1.577 0 1 0 0 3.156zM4.909 22.381l2.739-2.739c.102.019.195.061.301.061.874 0 1.578-.707 1.578-1.581 0-.106-.042-.198-.061-.301l2.739-2.742H4.909v7.302zM9.53 27.856c0-.874-.707-1.578-1.581-1.578-.106 0-.198.042-.301.061L4.906 23.6v7.302h7.302l-2.739-2.739c.022-.106.061-.202.061-.307zM28.637 26.275c-.874 0-1.578.707-1.578 1.581 0 .106.042.198.061.301l-2.742 2.742h7.302v-7.302l-2.739 2.739c-.102-.019-.195-.061-.304-.061zM23.555 12.054c.765-.419 1.046-1.379.627-2.144s-1.379-1.043-2.141-.624a1.574 1.574 0 0 0-.627 2.144 1.575 1.575 0 0 0 2.141.624z"/>
      <path d="M3.082 15.078c0-1.008.819-1.824 1.824-1.824h.998l.045-.157 14.09-7.715 1.075.314c.032.096.042.198.093.294a1.577 1.577 0 0 0 2.144.627c.093-.051.157-.131.234-.198l1.078.317 2.454 4.48-.317 1.078c-.096.029-.198.042-.291.093a1.551 1.551 0 0 0-.717.867h4.662l-3.146-5.747h.003l-3.51-6.406L.319 13.962l2.762 5.046v-3.93z"/>
      <path d="M13.866 10.826a5.166 5.166 0 0 0-2.253 2.426h8.803a3.517 3.517 0 0 0-.365-1.075c-1.104-2.013-3.872-2.618-6.186-1.35z"/>
    </symbol>
    <symbol id="icon-play" viewBox="0 0 32 32">
      <path d="M29.891 8.883H18.067l11.715-1.779c.595-.09 1.008-.65.918-1.245l-.701-4.611a1.097 1.097 0 0 0-1.248-.915l-26.81 4.07a1.097 1.097 0 0 0-.919 1.245l.653 4.307v20.627c0 .602.49 1.094 1.094 1.094h27.12c.602 0 1.094-.49 1.094-1.094V9.974c0-.598-.49-1.091-1.094-1.091zm-4.345-5.747 2.368-.358.339 2.24-4.138.627 1.43-2.509zm-6.97 1.059 2.973-.451-1.43 2.509-2.973.451 1.43-2.509zM3.472 6.49l4.138-.627-1.43 2.509-2.368.358-.339-2.24zm2.896 7.334H3.971v-2.266h4.186l-1.789 2.266zm5.238-8.57 2.973-.451-1.427 2.509-2.976.451 1.43-2.509zm3.6 6.304-1.789 2.266h-3.008l1.789-2.266h3.008zM16 28.294c-3.165 0-5.728-2.563-5.728-5.728s2.563-5.728 5.728-5.728 5.728 2.563 5.728 5.728A5.728 5.728 0 0 1 16 28.294zm4.467-14.47h-3.008l1.789-2.266h3.008l-1.789 2.266zm8.227 0h-4.186l1.789-2.266h2.397v2.266z"/>
      <path d="m18.742 22.106-3.418-2.352a.558.558 0 0 0-.874.458v4.701a.556.556 0 0 0 .874.458l3.418-2.352a.564.564 0 0 0 .243-.461.567.567 0 0 0-.243-.451z"/>
    </symbol>
    <symbol id="icon-phone" viewBox="0 0 32 32">
      <path d="M13.603 9.83a1.694 1.694 0 0 1 0-2.195l3.962-4.662a1.696 1.696 0 0 1 2.391-.195c.714.608.8 1.674.192 2.387l-1.59 1.875h6.822a1.694 1.694 0 1 1 0 3.386h-6.822l1.59 1.872a1.696 1.696 0 0 1-.192 2.387 1.694 1.694 0 0 1-2.387-.195l-3.965-4.659zm-3.139-.316c.157-.16.198-.362.128-.602-.067-.243-.246-.493-.538-.758L3.923 3.383c-.054-.061-.182-.134-.371-.214-.173-.074-.298-.099-.394-.083a.502.502 0 0 0-.512.208L1.491 4.718l7.936 6.141 1.037-1.344zm9.933 13.324c-.506-.157-.88-.272-1.133-.349a6.639 6.639 0 0 1-.483-.163c-.387-.163-.819-.419-1.299-.765l-7.136-5.622a5.704 5.704 0 0 1-1.091-1.059c-.189-.224-.432-.589-.73-1.101-.294-.509-.342-1.005-.138-1.488.042-.096.125-.23.259-.403L.774 5.702c-.838 1.978-.518 4.714.96 8.214.605 1.392 1.61 2.886 3.011 4.474 1.402 1.59 3.187 3.229 5.347 4.909a33.895 33.895 0 0 0 4.835 3.2 57.187 57.187 0 0 0 4.957 2.397 8.88 8.88 0 0 0 2.461.637c.87.099 1.84.122 2.918.064s1.962-.179 2.653-.371a4.562 4.562 0 0 0 1.773-.912l-7.878-6.195c-.438.637-.909.88-1.414.72zm10.534 1.652-5.718-4.448a2.509 2.509 0 0 0-.554-.307c-.512-.218-.886-.131-1.133.243l-1.062 1.306 7.875 6.192 1.069-1.318c.157-.365.246-.643.269-.835.026-.192-.221-.467-.746-.832z"/>
    </symbol>
    <symbol id="icon-condom" viewBox="0 0 32 32">
      <path d="M31.769 11.331c-.638-2.532-2.537-4.257-5.209-4.733-3.477-.621-7.234.393-10.216 1.426a31.077 31.077 0 0 1-2.209-4.304 5.093 5.093 0 0 0-.924-1.473C10.905-.281 8.681.162 7.559.651c-1.031.449-1.894 1.272-2.43 2.317-.822 1.603-.666 3.272-.391 4.388.159.643.467 1.259.943 1.881a12.06 12.06 0 0 1 1.852 3.484c-2.125 1.619-3.918 3.434-5.203 5.268C.31 20.875-.432 23.81.242 26.253c.514 1.864 1.799 3.303 3.715 4.162a14.91 14.91 0 0 0 6.162 1.314c6.187 0 11.591-3.631 14.026-5.561 6.983-5.537 8.517-11.294 7.623-14.836zM21.117 22.364c-5.106 3.896-10.183 5.347-13.58 3.882-1.383-.596-2.275-1.519-2.577-2.668-.392-1.485.191-3.315 1.686-5.292.447-.59.966-1.178 1.54-1.757.077 3.025-.816 5.326-.828 5.357a.631.631 0 0 0 1.173.471c.075-.187 1.813-4.62.346-9.576v-.004l-.004-.011-.01-.039c-.002-.006-.007-.011-.009-.017a13.301 13.301 0 0 0-2.167-4.24c-.368-.483-.604-.946-.721-1.418-.224-.908-.356-2.253.288-3.509.403-.786 1.047-1.402 1.811-1.735a3.17 3.17 0 0 1 1.274-.279c1.002 0 1.986.525 2.939 1.569.28.307.513.68.691 1.108.397.95 1.22 2.765 2.378 4.598l.006.018.109.166.09.143.025.034c2.245 3.42 4.671 5.197 7.088 5.197.351 0 .703-.037 1.053-.113a.631.631 0 1 0-.266-1.236c-1.969.422-3.775-.811-5.238-2.452 2.254-.631 4.339-.751 6.073-.343 1.853.438 2.929 1.299 3.198 2.56.526 2.468-1.974 6.231-6.369 9.585z"/>
    </symbol>
    <symbol id="icon-erection-sex-penis" viewBox="0 0 32 32">
      <path d="M18.025 3.6a2.475 2.475 0 1 1-4.95 0 2.475 2.475 0 0 1 4.95 0zM20.25 15.6a.627.627 0 0 0-.875-.05l-1.5 1.3c.025-.05.05-.125.075-.175.4-1.7.625-3.5.625-5.325.025-.125 0-.425 0-.475C18.575 8.8 17.05 7.1 15.1 6.75c0 0-.25-.025-.3-.025-.775 0-1.4.625-1.4 1.4v9.3c0 .6.5 1.075 1.075 1.075.6 0 1.075-.5 1.075-1.075v-7c0-.175.125-.3.3-.3s.3.125.3.3V17.4c0 .4-.15.775-.375 1.075-.3.375-.775.625-1.325.625-.15 0-.3-.025-.475-.05v10.3c0 .875.675 1.55 1.55 1.55s1.55-.675 1.55-1.55V19.125c.05-.025.075-.05.1-.075l2.975-2.575a.591.591 0 0 0 .1-.875z"/>
    </symbol>
    <symbol id="icon-icon-sexs" viewBox="0 0 32 32">
      <path d="M10.813 21.885c.666 0 1.325-.067 1.965-.192a11.863 11.863 0 0 1-3.306-4.298 5.516 5.516 0 0 1-.704-.205c-3.162-1.123-4.826-4.614-3.696-7.779a6.11 6.11 0 0 1 5.741-4.054 6.1 6.1 0 0 1 2.042.352 6.108 6.108 0 0 1 3.699 7.786c-.086.24-.186.47-.301.694.003.006.006.01.006.016a4.51 4.51 0 0 0 3.462 2.656c.365-.598.669-1.238.909-1.91 1.93-5.421-.906-11.392-6.323-13.322a10.285 10.285 0 0 0-3.498-.608A10.459 10.459 0 0 0 .985 7.955c-1.712 4.816.339 10.07 4.618 12.531l-1.28 3.594-.435-.918a1.877 1.877 0 0 0-2.499-.89 1.878 1.878 0 0 0-.89 2.499l2.435 5.133a1.877 1.877 0 0 0 2.499.89l4.883-2.317a1.873 1.873 0 0 0 .886-2.496 1.87 1.87 0 0 0-2.499-.89l-.915.435 1.344-3.776c.56.086 1.117.134 1.68.134z"/>
      <path d="M31.523 22.998a1.871 1.871 0 0 0-2.467-.973l-2.064.893-.797-1.84a10.369 10.369 0 0 0 3.901-4.826 10.364 10.364 0 0 0-.125-7.981 10.44 10.44 0 0 0-9.574-6.285c-.8 0-1.408.061-2.179.24 1.514.966 2.605 2.291 3.363 4.221 1.997.352 3.587 1.645 4.41 3.549a6.071 6.071 0 0 1 .074 4.662 6.063 6.063 0 0 1-3.245 3.354 6.06 6.06 0 0 1-3.482.409 6.08 6.08 0 0 1-4.528-3.581 6.06 6.06 0 0 1-.141-4.493c.019-.054.045-.115.064-.173.122-.298.269-.582.429-.854a6.04 6.04 0 0 0-3.187-2.627c-.08-.026-.163-.038-.243-.064a10.322 10.322 0 0 0-1.024 1.952l-.042.106a10.365 10.365 0 0 0 .17 7.872 10.419 10.419 0 0 0 9.568 6.285c.797 0 1.578-.099 2.349-.275l.797 1.837-2.064.899a1.874 1.874 0 1 0 1.492 3.44l2.064-.896.765 1.763a1.878 1.878 0 0 0 1.722 1.133c.25 0 .499-.051.746-.157a1.868 1.868 0 0 0 .973-2.464l-.765-1.766 2.064-.893a1.87 1.87 0 0 0 .979-2.467z"/>
    </symbol>
  </defs>
</svg>
